<?xml version="1.0" encoding="utf-8"?>
<!-- Generator: Adobe Illustrator 26.3.1, SVG Export Plug-In . SVG Version: 6.00 Build 0)  -->
<svg version="1.0" id="Layer_1" xmlns="http://www.w3.org/2000/svg" xmlns:xlink="http://www.w3.org/1999/xlink" x="0px" y="0px"
	 width="430.5410767px" height="140.9879608px" viewBox="0 0 430.5410767 140.9879608"
	 style="enable-background:new 0 0 430.5410767 140.9879608;" xml:space="preserve">
<style type="text/css">
	.st0{fill:#2E3192;}
	.st1{fill:url(#SVGID_1_);}
	.st2{fill:#FFFFFF;}
	.st3{fill:#097DC2;}
	.st4{fill:url(#SVGID_00000134948120358307426530000013825518263111476889_);}
</style>
<path class="st0" d="M33.8624229,93.0837402l29.8028145,0.5942154l-3.4990425,19.1932602
	c-0.2241783,1.2296677-0.9207649,2.3292847-1.9547958,3.0315094c-0.897995,0.6098404-2.0430069,1.0440674-3.1505127,0.4903183
	c-1.9460869-0.9730453-17.9958992-13.4111557-23.2985039-17.5354156c-1.0237732-0.7962723-2.0562859-2.6708374-0.5754547-4.2145081
	L33.8624229,93.0837402z"/>
<linearGradient id="SVGID_1_" gradientUnits="userSpaceOnUse" x1="61.4342842" y1="48.3931961" x2="49.3815384" y2="105.7228928">
	<stop  offset="0" style="stop-color:#2E3192"/>
	<stop  offset="1" style="stop-color:#00AEEF"/>
</linearGradient>
<path class="st1" d="M57.3794746,126.7979736c-2.0767479,0-4.127655-0.7061768-6.0196228-2.0869293l-26.6025925-19.4137726
	c-2.4665222-1.8001175-3.9239941-4.2073212-4.2146854-6.9615936c-0.5612984-5.3189392,3.4416962-9.9627686,3.9000282-10.4747849
	l0.3658066-0.4086609l30.4474545-18.0606079l8.3301544-9.9362526c0.1230507-1.9985542,0.7415276-4.8023643,3.0978508-6.0663567
	c1.04319-0.5594215,3.1965332-1.2042694,5.8967056,0.7661629l12.898468,9.4127159
	c2.6999054,1.9704361,2.7427521,4.2180328,2.527977,5.3821411c-0.4852448,2.6297379-2.966629,4.0736923-4.8323517,4.8004837
	l-6.9219589,10.9637833l-7.9134674,34.5053482l-0.2777023,0.4729233c-0.3477325,0.5926285-3.5493546,5.8210526-8.7862129,6.9091034
	C58.6436005,126.7328949,58.0102654,126.7979736,57.3794746,126.7979736z M29.4550476,92.9856796
	c-0.8069992,1.0596619-1.9887772,3.0970459-1.8206005,4.6146317c0.0500774,0.4531097,0.2422199,1.146965,1.325716,1.937767
	l26.6025925,19.4137726c1.0766678,0.7857132,1.7750778,0.7701797,2.2624626,0.6689529
	c1.5027313-0.3122482,3.08004-2.0590744,3.8251801-3.1310577l7.9245834-34.5540848l8.9899979-14.2391739l0.3470612-0.0942688
	l-8.1705475-5.9627151l0.0166016,0.3730392l-0.8914871,1.0489502l-9.9278183,11.8418808L29.4550476,92.9856796z"/>
<circle class="st0" cx="85.0005417" cy="51.8771591" r="4.1617098"/>
<path class="st0" d="M94.0442505,41.5844269c-1.8095093,0.0002365-3.5751648-0.62743-4.953186-1.781292
	c-1.2757874-1.068161-2.1429062-2.5306778-2.4416275-4.1177368c-0.2987213-1.5872917-0.0080032-3.1873016,0.8188095-4.5052586
	c1.044342-1.6649876,2.8603745-2.7644634,4.9825363-3.016613c2.1233444-0.2526207,4.2635803,0.3773994,5.8754272,1.7269058
	c1.2757874,1.0681629,2.1429062,2.5304432,2.4416275,4.1177349c0.2987213,1.5872955,0.0080032,3.1873055-0.8188095,4.5052605
	c-1.044342,1.6649895-2.8603745,2.7644653-4.9825363,3.016613C94.6588821,41.5665321,94.350975,41.5844269,94.0442505,41.5844269z"
	/>
<path class="st0" d="M80.3802185,24.8749371c-1.1353149,0-2.236702-0.3612499-3.1661987-1.049078
	c-1.1467285-0.8487473-1.8944168-2.0931206-2.105423-3.5043373c-0.2111435-1.410923,0.1400299-2.8197708,0.9887772-3.9666443
	c0.8485947-1.147171,2.0929642-1.8948612,3.5040359-2.1061592c2.9120865-0.4335594,5.6374664,1.5801382,6.0730972,4.4929619
	v0.0002956c0.4356384,2.9128227-1.5798416,5.6374645-4.4929581,6.0730991
	C80.9137955,24.8550816,80.6458969,24.8749371,80.3802185,24.8749371z M77.8713226,19.9087048
	c0.2077408,1.3898811,1.5075302,2.3497601,2.8971176,2.1434994c1.3897324-0.2080364,2.3512344-1.5078278,2.1434937-2.8974133
	c-0.0992737-0.6629333-0.4652634-1.2722301-1.0044785-1.6711159c-0.5392075-0.3991833-1.2292557-0.5707703-1.8929291-0.472086
	c-1.3895874,0.2080383-2.3509445,1.5075321-2.1432037,2.8968201"/>
<g>
	<path class="st2" d="M42.3736649,99.2712631l-6.7052155,15.6700897h-7.0205288l24.3750782-55.7500839h6.3107681
		l24.1388893,55.7500839h-7.0996552l-6.7840424-15.6700897L67.616745,94.148262L55.9417458,66.1975708L44.345871,94.148262"/>
	<path class="st2" d="M101.7737427,59.1912689h17.4333801c8.2829742,0,17.1180573,1.7327576,22.9555511,8.3624039
		c4.733017,4.9724503,7.0208282,11.5269699,7.0208282,19.437439c0,16.8003769-10.0184021,27.9502411-29.6607742,27.9502411
		h-17.7489853V59.1912689z M108.2421722,109.4416962h11.5961685c14.9879074,0,22.7976151-8.8146362,22.7976151-22.224762
		c0-6.4788055-1.8142548-12.2047272-5.6798553-16.2730179c-3.7073364-3.7669067-9.1503906-6.2529831-17.1177597-6.2529831
		h-11.5961685V109.4416962z"/>
	<path class="st2" d="M204.6382751,59.1912689h6.5475616v50.2504272h22.2452087v5.4996567h-28.7927704V59.1912689z"/>
	<path class="st2" d="M253.2298889,114.9413528h-7.0208282l24.3753815-55.7500839h6.3107605l24.1388855,55.7500839h-7.0996399
		l-6.7840576-15.6700897h-27.2153015L253.2298889,114.9413528z M273.5031738,66.1975708L261.9073181,94.148262h23.270874
		L273.5031738,66.1975708z"/>
	<path class="st2" d="M319.3351746,59.1912689h15.3823547c5.2854004,0,8.9141846,0.9041634,11.517334,2.6369209
		c4.7330017,2.5613518,6.3107605,7.2324181,6.3107605,11.6018028c0,6.5548172-3.8652954,9.8694916-7.8096924,11.8283615
		c10.4916687,3.0888596,11.2017212,11.6018066,11.2017212,14.1634521
		c-0.0788269,6.0268707-2.9975891,10.5473862-7.9673767,13.0334702c-3.4708557,2.0341415-6.7840271,2.4860764-12.5426941,2.4860764
		h-16.0924072V59.1912689z M325.8036194,83.2994843h8.8350525c2.6822815,0,5.048645-0.3013916,6.8631897-1.129982
		c3.7073364-1.9588776,4.7330017-4.8968887,4.7330017-8.2872772c0-4.0682907-2.2878113-6.8557587-4.7330017-7.9104691
		c-1.4989319-0.7533264-3.4711609-1.2055511-7.2576294-1.2808228h-8.4406128V83.2994843z M325.8036194,109.4416962h10.5704956
		c2.3666382,0,4.9697876-0.22612,7.0996399-1.0547104c3.4711609-1.4313736,6.0743103-4.2941132,6.1531372-9.2665634
		c0-4.5202255-2.5243225-7.8351974-6.2319641-9.4171143c-2.6031189-1.0547104-4.5753479-1.1302795-8.2038574-1.1302795h-9.3874512
		V109.4416962z"/>
	<path class="st2" d="M380.2338867,99.4218063c0.9465637,9.2665634,8.0462036,11.225441,11.6747131,11.225441
		c6.0742798,0,11.6750183-4.4449539,11.6750183-10.6226654c0-7.8351974-7.0208435-9.567955-13.8048706-11.6773682
		c-4.7330017-1.356102-14.9090881-4.2188416-14.9090881-14.7663803c-0.1576538-9.869339,8.4406433-15.3689995,17.3545532-15.3689995
		c7.2573242,0,15.6191406,3.8421745,16.565979,14.3895683h-6.46875c-0.7100525-3.616066-2.6031189-9.1157265-10.3337097-9.1157265
		c-5.8374939,0-10.6496277,3.7669029-10.6496277,9.5676537c-0.0788269,6.7806396,5.6798401,8.4381256,14.5149231,11.3008652
		c5.5218811,2.0341415,14.1993103,4.9724503,14.1993103,15.2181549c0,9.1160202-7.1784973,16.3484421-18.0646057,16.3484421
		c-9.7819214,0-17.9069519-5.8763199-18.3013916-16.4989853H380.2338867z"/>
</g>
<g>
	<g>
		<path class="st3" d="M282.0369873,37.9179306h-3.3213501l-4.5953979-12.9969482l-4.5994263,12.9969482h-3.3213501
			l6.6487122-17.0414677h2.5300903L282.0369873,37.9179306z"/>
	</g>
	<path class="st2" d="M150.30867,33.148243c-0.6450348,1.5525017-1.6907349,2.7925034-3.1390686,3.7179947
		s-3.0589294,1.388237-4.8377838,1.388237c-2.4379425,0-4.5132751-0.8613892-6.2260437-2.5881729
		c-1.7127533-1.7227745-2.5701447-3.8121433-2.5701447-6.2640953c0-2.4599648,0.8573914-4.5513363,2.5701447-6.2761154
		c1.7147675-1.724781,3.7901154-2.5881729,6.2280426-2.5881729c1.7928925,0,3.417511,0.4707584,4.8758545,1.4122772
		c1.4583588,0.9415169,2.5180664,2.2035522,3.177124,3.7840996h-3.5877838
		c-0.5328522-0.6891117-1.2139587-1.2379951-2.0412903-1.6466541c-0.8293304-0.408659-1.6746979-0.6129894-2.536087-0.6129894
		c-1.500412,0-2.7945099,0.5709209-3.886261,1.7147636c-1.0917664,1.1438446-1.6366425,2.5060406-1.6366425,4.0885906
		c0,1.686718,0.5569,3.1150227,1.6707001,4.2849064c1.1137848,1.1698875,2.4719849,1.7548294,4.0785675,1.7548294
		c0.7952881,0,1.5785522-0.1963158,2.3517914-0.5909538c0.7712402-0.3946342,1.4142761-0.9214821,1.9230957-1.5805473h3.5857849
		V33.148243z"/>
	<path class="st2" d="M167.217926,20.8764648h2.4519501l7.131485,17.0414658h-3.4515533l-1.6947327-4.3990898h-6.438385
		l-1.656662,4.3990898h-3.4756012L167.217926,20.8764648z M166.3365021,30.5841103h4.1867523l-2.1074066-5.4447746h-0.0080109
		L166.3365021,30.5841103z"/>
	<path class="st2" d="M187.8491669,20.8764648h4.5213013c2.0252533,0,3.5937805,0.4427128,4.7075806,1.3281403
		s1.6707001,2.1334381,1.6707001,3.7460384c0,1.8149242-0.5368652,3.1831303-1.6085968,4.1066189
		c-1.0717316,0.921484-2.6622925,1.3842297-4.7696838,1.3842297h-1.3722229v6.4784412h-3.1490784V20.8764648z
		 M190.9982452,28.5027561h1.3722229c1.0717163,0,1.8770142-0.194313,2.4118805-0.5849438
		c0.5368652-0.3906288,0.8052979-0.9755707,0.8052979-1.7548275s-0.2684326-1.3662033-0.8052979-1.7608395
		s-1.3401642-0.5909519-2.4118805-0.5909519h-1.3722229V28.5027561z"/>
	<path class="st2" d="M211.6194916,23.8111954h-3.1711121v-2.9347305h9.4933014v2.9367332h-3.173111v14.1047363h-3.1490784
		V23.8111954z"/>
	<path class="st2" d="M228.8552704,20.8764648h3.1490784v17.0414658h-3.1490784V20.8764648z"/>
	<path class="st2" d="M243.0421295,20.8764648h3.3213654l4.5974121,12.998951l4.599411-12.9989529h3.3193512l-6.6487122,17.0414677
		h-2.5300751L243.0421295,20.8764648z"/>
	<path class="st2" d="M293.1749268,23.8111954h-3.1711121v-2.9347305h9.4933167v2.9367332h-3.1731262v14.1047363h-3.1490784
		V23.8111954z"/>
	<path class="st2" d="M310.963623,37.9179306V20.8764648h9.166748v2.9367332h-6.0176697v4.1947613h5.7372437v2.9367332h-5.7372437
		v4.0385113h6.0176697v2.9367332h-9.166748V37.9179306z"/>
</g>
<linearGradient id="SVGID_00000167358212439508452060000002320712961791912867_" gradientUnits="userSpaceOnUse" x1="67.2949295" y1="66.9003906" x2="67.2949295" y2="66.9003906">
	<stop  offset="0" style="stop-color:#2E3192"/>
	<stop  offset="1" style="stop-color:#00AEEF"/>
</linearGradient>
<path style="fill:url(#SVGID_00000167358212439508452060000002320712961791912867_);" d="M67.2949295,66.9003906"/>
</svg>
